<svg width="20" height="20" viewBox="0 0 20 20" fill="none" xmlns="http://www.w3.org/2000/svg">
<path d="M1.41431 1.41437C2.19536 0.63332 3.46138 0.63332 4.24243 1.41437L9.99927 7.1712L15.6565 1.51495C16.4375 0.733905 17.7045 0.733905 18.4856 1.51495C19.2663 2.29595 19.2663 3.56212 18.4856 4.34308L12.8284 9.99933L18.385 15.556C19.1661 16.337 19.1661 17.604 18.385 18.3851C17.604 19.1661 16.337 19.1661 15.5559 18.3851L9.99927 12.8284L4.34302 18.4857C3.56206 19.2664 2.2959 19.2663 1.51489 18.4857C0.733844 17.7046 0.733844 16.4376 1.51489 15.6566L7.17114 9.99933L1.41431 4.24249C0.633258 3.46144 0.633258 2.19542 1.41431 1.41437Z" fill="white" fill-opacity="0.5"/>
</svg>
